<svg xmlns="http://www.w3.org/2000/svg" viewBox="0 0 96 96" width="96" height="96">
  <polygon points="33.93,25.57 62.07,25.57 62.07,79.57 33.93,79.57" fill="#ffffff" stroke="#1e293b" stroke-width="1.6" stroke-linejoin="round" stroke-linecap="round"></polygon>
  <polygon points="10.00,16.43 33.93,25.57 33.93,79.57 10.00,70.43" fill="#ffffff" stroke="#1e293b" stroke-width="1.6" stroke-linejoin="round" stroke-linecap="round"></polygon>
  <polygon points="62.07,25.57 86.00,16.43 86.00,70.43 62.07,79.57" fill="#ffffff" stroke="#1e293b" stroke-width="1.6" stroke-linejoin="round" stroke-linecap="round"></polygon>
  <polygon points="38.15,29.89 57.85,29.89 57.85,48.25 38.15,48.25" fill="#d6d3d1" stroke="#1e293b" stroke-width="1" stroke-linejoin="round"></polygon>
  <line x1="38.15" y1="55.27" x2="57.85" y2="55.27" stroke="#1e293b" stroke-width="1.3" stroke-linecap="round" opacity="1"></line>
  <line x1="38.15" y1="61.21" x2="53.63" y2="61.21" stroke="#1e293b" stroke-width="1.3" stroke-linecap="round" opacity="1"></line>
  <line x1="38.15" y1="67.15" x2="57.85" y2="67.15" stroke="#1e293b" stroke-width="1.3" stroke-linecap="round" opacity="1"></line>
  <line x1="38.15" y1="73.09" x2="51.38" y2="73.09" stroke="#1e293b" stroke-width="1.3" stroke-linecap="round" opacity="1"></line>
  <line x1="15.98" y1="28.43" x2="30.58" y2="34.01" stroke="#1e293b" stroke-width="1.1" stroke-linecap="round" opacity="1"></line>
  <line x1="15.98" y1="34.91" x2="27.23" y2="39.21" stroke="#1e293b" stroke-width="1.1" stroke-linecap="round" opacity="1"></line>
  <line x1="15.98" y1="43.01" x2="30.58" y2="48.59" stroke="#1e293b" stroke-width="1.1" stroke-linecap="round" opacity="1"></line>
  <line x1="15.98" y1="49.49" x2="28.66" y2="54.34" stroke="#1e293b" stroke-width="1.1" stroke-linecap="round" opacity="1"></line>
  <line x1="15.98" y1="55.97" x2="30.58" y2="61.55" stroke="#1e293b" stroke-width="1.1" stroke-linecap="round" opacity="1"></line>
  <line x1="15.98" y1="62.45" x2="25.79" y2="66.20" stroke="#1e293b" stroke-width="1.1" stroke-linecap="round" opacity="1"></line>
  <line x1="65.42" y1="34.01" x2="80.02" y2="28.43" stroke="#1e293b" stroke-width="1.1" stroke-linecap="round" opacity="1"></line>
  <line x1="65.42" y1="40.49" x2="76.91" y2="36.10" stroke="#1e293b" stroke-width="1.1" stroke-linecap="round" opacity="1"></line>
  <line x1="65.42" y1="48.59" x2="80.02" y2="43.01" stroke="#1e293b" stroke-width="1.1" stroke-linecap="round" opacity="1"></line>
  <line x1="65.42" y1="55.07" x2="75.23" y2="51.32" stroke="#1e293b" stroke-width="1.1" stroke-linecap="round" opacity="1"></line>
  <line x1="65.42" y1="61.55" x2="80.02" y2="55.97" stroke="#1e293b" stroke-width="1.1" stroke-linecap="round" opacity="1"></line>
  <line x1="65.42" y1="68.03" x2="72.84" y2="65.20" stroke="#1e293b" stroke-width="1.1" stroke-linecap="round" opacity="1"></line>
</svg>