<svg xmlns="http://www.w3.org/2000/svg" viewBox="0 0 96 96" width="96" height="96">
  <path d="M33 14 H63 V19 Q63 21.5 60.5 22 H35.5 Q33 21.5 33 19 Z" fill="#d6d3d1" stroke="#1e293b" stroke-width="1.6" stroke-linejoin="round"></path>
  <line x1="36" y1="17.5" x2="60" y2="17.5" stroke="#1e293b" stroke-width="0.9" stroke-linecap="round" opacity="0.55"></line>
  <path d="M25 28 Q25 22.5 31 22 H65 Q71 22.5 71 28 V81 Q71 86.5 65 87 H31 Q25 86.5 25 81 Z" fill="#ffffff" stroke="#1e293b" stroke-width="1.6" stroke-linejoin="round"></path>
  <path d="M22 44 Q48 41.5 74 44 V70 Q48 72.5 22 70 Z" fill="#ffffff" stroke="#1e293b" stroke-width="1.6" stroke-linejoin="round"></path>
  <path d="M22 44 Q48 41.5 74 44" fill="none" stroke="#1e293b" stroke-width="0.9" stroke-linecap="round" opacity="0"></path>
  <rect x="28" y="48" width="11" height="7" rx="1" fill="#d6d3d1" stroke="#1e293b" stroke-width="0.9"></rect>
  <line x1="42" y1="50" x2="68" y2="50" stroke="#1e293b" stroke-width="1.3" stroke-linecap="round"></line>
  <line x1="42" y1="54" x2="62" y2="54" stroke="#1e293b" stroke-width="1.3" stroke-linecap="round"></line>
  <line x1="28" y1="61" x2="68" y2="61" stroke="#1e293b" stroke-width="1.1" stroke-linecap="round"></line>
  <line x1="28" y1="65" x2="58" y2="65" stroke="#1e293b" stroke-width="1.1" stroke-linecap="round"></line>
</svg>